<svg t="1763091659164" class="icon" viewBox="0 0 1024 1024" version="1.1" xmlns="http://www.w3.org/2000/svg" p-id="6384" width="48" height="48"><path d="M626.488224 518.379587h-9.963207a6.185766 6.185766 0 0 1 0-12.371533h9.963207a6.185766 6.185766 0 1 1 0 12.371533z" fill="#3F3F3F" p-id="6385"></path><path d="M382.430877 1013.018203v-0.016495l48.875802-0.243307 18.425336-8.033249v7.513644h27.229743v-50.929475H451.332066s-1.950578 33.460872-26.442089 23.378072c-39.720867-16.355166-45.642708 17.534586-45.642707 17.534586s-1.525822 10.796224 3.183607 10.796224z" fill="#7B7B9C" p-id="6386"></path><path d="M382.430877 1019.203969a8.680692 8.680692 0 0 1-6.631141-3.026901c-3.703212-4.259931-3.105255-11.781823-2.680499-14.816973 1.670157-9.57969 10.507555-27.316344 32.231966-27.316344 6.589903 0 13.955089 1.653662 21.893489 4.92387 2.301105 0.94436 4.371275 1.42685 6.152776 1.42685 10.251877 0 11.748832-19.2666 11.761203-19.46042l0.362899-5.794001 37.62183-0.016496v63.305132h-39.601276v-4.255807l-10.932311 4.767164-50.178936 0.263926z m22.920326-32.788685c-16.379909 0-19.69548 15.175747-20.017139 16.907761a20.709946 20.709946 0 0 0-0.119592 3.484649l44.789072-0.222688 25.914237-11.299333v10.771481h14.85821v-38.562067h-13.971584c-2.053674 11.295209-8.523986 25.270917-23.402815 25.270917-3.406295 0-7.060021-0.791778-10.86633-2.358839-6.437321-2.651632-12.21895-3.991881-17.184059-3.991881z" fill="#6E6E96" p-id="6387"></path><path d="M626.455234 1013.018203v-0.016495l-48.879926-0.243307-18.425335-8.033249v7.513644h-27.233867v-50.929475h25.65031s3.60424 37.069235 26.42147 23.378072c38.244531-22.936821 45.650955 17.534586 45.650955 17.534586s4.824898 10.796224-3.183607 10.796224z" fill="#7B7B9C" p-id="6388"></path><path d="M626.455234 1019.203969l-6.185767-0.049486-43.997293-0.218564-10.932311-4.767164v4.255808h-39.6054v-63.301009h37.448629l0.544348 5.583685c0.651567 6.519798 4.317665 20.829537 10.932311 20.829537 1.674281 0 3.802184-0.746416 6.148651-2.152646 8.763169-5.253778 16.924257-7.921905 24.260576-7.921905 19.514031 0 28.38442 18.532556 30.520571 28.945262 1.117562 2.750604 3.167112 9.307516-0.045363 14.25613-1.101066 1.690776-3.744451 4.540352-9.088952 4.540352z m-47.572667-12.623087l45.787042 0.226812a12.656078 12.656078 0 0 0-0.67631-2.066046l-0.433004-1.410355c-0.148458-0.775283-3.87229-19.501659-18.487193-19.501659-5.064081 0-11.084893 2.074294-17.897484 6.156899-4.330036 2.598022-8.540481 3.917652-12.511744 3.917652-15.097394 0-20.544992-17.097458-22.396597-26.413222h-14.161281v38.562067h14.862334v-10.771481l25.914237 11.299333z" fill="#6E6E96" p-id="6389"></path><path d="M280.41522 600.060569s-24.252328 5.876478-29.332904 20.862528c-5.076452 15.002545-22.004833 43.345726 11.126131 13.96746 0 0-14.969554 49.721189-5.27852 52.488289 9.691034 2.775347 21.006862-36.083637 21.006862-36.083637s-14.045813 35.366088-1.608299 39.638391c12.437514 4.264055 17.819131-42.4591 17.819131-42.4591s-3.575373 38.137311 2.01656 40.06727c5.608428 1.921711 25.089468-60.45968 17.167563-76.843713-7.934276-16.400528 4.899127-23.122394 4.899127-23.122394l-24.009021-10.000322-13.80663 21.485228z" fill="#E3B8A8" p-id="6390"></path><path d="M277.91617 697.39154c-1.204163 0-2.416573-0.206192-3.595992-0.606205-3.591868-1.237153-6.144528-3.633107-7.653855-7.179613-3.356809 3.381552-6.259995 4.099101-8.730178 4.099101-0.915493 0-1.826863-0.127839-2.709366-0.379394-1.699024-0.486614-4.078482-1.707271-5.744515-4.750668-3.81868-6.985792-1.31963-23.316215 1.950579-37.366152-3.422791 2.074294-5.657914 2.668127-7.58375 2.668127h-0.004124a7.559006 7.559006 0 0 1-6.408454-3.360933c-3.212475-4.833145-0.305164-11.752956 4.090854-22.231644 1.369116-3.257837 2.783595-6.631141 3.699088-9.348755 5.142434-15.155127 24.140984-22.099681 31.271111-24.215213l12.524114-19.493412a6.185766 6.185766 0 0 1 7.58375-2.367086l24.009021 10.000322a6.185766 6.185766 0 0 1 0.494861 11.187989c-1.666033 0.952608-7.022907 4.989851-2.202133 14.953059 8.404394 17.382003-7.3157 68.802217-14.466445 80.196398-0.952608 1.521699-3.492896 5.571314-8.004382 5.571314-0.680434 0-1.624795-0.156706-2.268114-0.379394-1.447469-0.498985-3.393924-1.167048-4.932118-4.643448-3.002159 4.65582-6.717742 7.645607-11.319952 7.645607z m2.218628-33.135088c-3.661974 12.961242-2.878443 18.639776-2.148523 20.309932 3.525887-3.756822 8.128097-20.421276 10.016818-36.805309a6.2435 6.2435 0 0 1 6.787847-5.443475 6.185766 6.185766 0 0 1 5.517704 6.730114 257.406231 257.406231 0 0 0-1.10519 21.514095 195.028964 195.028964 0 0 0 5.723895-19.46042c5.051709-20.982119 4.684687-32.891781 2.837205-36.710461-4.936242-10.210638-3.563001-18.144914-0.317536-23.613132l-10.820967-4.503238-11.002416 17.126325a6.156899 6.156899 0 0 1-3.748575 2.668127c-5.826992 1.430974-21.679049 7.249718-24.932762 16.833532-1.055704 3.125874-2.560907 6.705371-4.0125 10.165276l-1.047456 2.511421c1.732015-1.418602 3.789813-3.167112 6.227004-5.323883a6.185766 6.185766 0 0 1 10.025066 6.408454c-4.981604 16.553111-8.31367 33.786655-8.338413 41.898257 1.929959-2.771223 4.87026-8.086858 8.569348-18.140791 1.830987-6.379587 3.744451-11.216856 3.822803-11.423048a6.185766 6.185766 0 0 1 11.686975 4.0125 187.647282 187.647282 0 0 1-3.740327 11.245724z" fill="#6E6E96" p-id="6391"></path><path d="M352.417539 630.308966l38.083701 211.841876 14.668514 113.566546s4.177454 11.427172 37.889881 12.907632c11.3282 0.498985 34.009343 1.397983 44.962273-8.144592V565.214086l-135.604369 65.09488z" fill="#B38DAF" p-id="6392"></path><path d="M453.542447 975.091208c-4.078482 0-7.794066-0.156706-10.750862-0.284545-36.013531-1.579432-42.496214-14.408712-43.428203-16.965495l-0.325784-1.327878-14.668514-113.566546-38.871355-216.176036 148.714069-71.383743v407.910048l-2.12378 1.847483c-7.682722 6.692999-20.289313 9.946712-38.545571 9.946712z m-42.409614-21.493476c1.492832 1.719643 8.408518 7.806437 32.203099 8.84977 2.808338 0.123715 6.334225 0.276298 10.206515 0.276297 13.126196 0 22.623409-1.797996 28.297818-5.344502v-382.329843l-122.502915 58.801894 37.254808 207.206676 14.540675 112.539708z" fill="#6E6E96" p-id="6393"></path><path d="M475.497793 711.532201l36.632108 249.290506s23.448178 15.320081 68.864074 0l10.260125-128.255678 33.700054-172.083895-149.460485-17.509842 0.004124 68.558909z" fill="#B38DAF" p-id="6394"></path><path d="M542.955636 973.821064c-21.992461-0.004124-33.720674-7.497149-34.211411-7.818809l-2.329972-1.521698-37.102226-252.948356-0.004124-75.507587 162.999066 19.093399-34.916589 178.29028-10.561165 131.971262-3.864042 1.299011c-14.029318 4.742421-27.489545 7.142498-40.009537 7.142498z m-25.167821-17.027353c3.789813 1.690776 12.268436 4.65582 25.167821 4.65582h0.004124c10.041561 0 20.85428-1.765005 32.2031-5.241406l10.029189-124.82464 32.413415-165.526982-135.921905-15.926286 0.004124 61.152485 36.100132 245.711009z" fill="#6E6E96" p-id="6395"></path><path d="M276.175908 584.649763l24.260575 13.072586 22.532685 2.618641 83.590322-222.720577 47.605657-119.014143c-39.885821 11.637488-68.864074 38.5332-100.47334 66.68256 0-0.008248-71.886852 99.867135-77.515899 259.360933z" fill="#B38DAF" p-id="6396"></path><path d="M327.060021 607.038113l-28.516382-3.307323-28.685461-15.456168 0.136087-3.843423c2.940301-83.314024 24.103869-150.206901 41.337414-191.647411 9.773511-23.501788 19.357325-41.51474 25.679178-52.488289 6.981668-12.119978 10.387964-17.328393 12.631335-19.555269l-0.065981-0.074229 3.946518-3.517639c30.520571-27.225619 59.350366-52.937788 98.910404-64.484552l12.194207-3.558877-52.323335 130.808337-85.243984 227.124843z m-24.734817-15.324205l16.548987 1.925836 81.891298-218.192597 42.640549-106.613744c-30.866974 12.243693-55.622411 34.326879-81.652116 57.548246l-3.414543 3.043397c-5.43935 7.880666-69.581623 103.854892-75.837494 251.608106l19.823319 10.680756z" fill="#6E6E96" p-id="6397"></path><path d="M337.905731 609.293856l-4.79603 31.906183 38.252778 21.687296 63.750508 14.029318 38.252779-116.115081-37.543478-306.249041-34.710397 123.777183z" fill="#B38DAF" p-id="6398"></path><path d="M439.240955 684.158124l-70.117723-15.427301-42.764264-24.248204 5.579561-36.817681 63.20616-230.964142 34.718644-123.814298 12.095235 0.915493 37.716679 307.626406-40.434292 122.729727z m-65.639228-27.110152l57.383292 12.627211 36.075389-109.492187-33.617578-274.227392-26.371984 94.044267-63.103064 230.576501-4.111472 27.336963 33.745417 19.134637z" fill="#6E6E96" p-id="6399"></path><path d="M490.364251 685.857147l69.429041 1.28664 65.164986-30.640163-1.286639-150.569799-61.065885-237.343729s-67.998067 70.179581-110.502529 228.411483c0.008248 0.004124-18.40884 40.834305 38.261026 188.855568z" fill="#B38DAF" p-id="6400"></path><path d="M561.125294 693.354296l-75.041593-1.389735-1.492831-3.897033c-54.005864-141.056091-40.896163-186.500854-38.359999-193.028899 42.434357-157.699926 109.116917-227.838268 111.937627-230.749702l7.682721-7.926029 64.006186 249.521441 1.31963 154.532814-70.051741 32.937143z m-66.468121-13.604562l63.808241 1.183543 60.274107-28.339057-1.249525-145.847998-57.919391-225.108283c-18.53668 23.015174-67.490834 92.027707-100.770257 214.287316l0.296917 0.445375-1.307259 3.068141c-0.16083 0.395889-15.711846 41.469377 36.867167 180.310963z" fill="#6E6E96" p-id="6401"></path><path d="M424.704404 261.290892s-23.584265 84.563549 30.805116 222.596862c0 0 41.374529-119.937885 106.275589-214.827539 64.896936-94.897903 0 0 0 0l-137.080705-7.769323" fill="#FFFFFF" p-id="6402"></path><path d="M455.637359 489.834337l-2.04955-5.196043c-28.20297-71.581688-35.114533-128.56909-35.939302-163.766101-0.898998-38.261026 4.820774-59.263765 5.068204-60.13802l0.445375-1.600051 137.571443 7.798189 20.190341-29.522601 2.358839-3.451657 5.629047-8.235317 0.136087 0.090724c0.83714-0.99797 1.10519-0.99797 1.571185-0.99797h1.245401l0.581462 1.101067c0.177325 0.338155 0.301041 0.56909-0.42888 1.925835l0.305164 0.210316c-0.078353 0.10722-2.33822 3.422791-7.99201 11.686974l-14.458197 21.14295-4.325913 6.321853-2.061922 3.01453c-64.002062 93.578272-105.615774 213.140887-106.028158 214.336802l-1.818616 5.27852zM426.300332 263.447663c-2.762976 12.124102-17.885112 91.986469 29.126711 214.542994 7.666226-21.043977 38.401237-102.015658 83.672799-177.312929-1.191791 0.91137-3.323818-0.020619-3.323818-1.633042a2.061922 2.061922 0 1 1 4.094977 0.346403 676.541383 676.541383 0 0 1 18.153162-28.479268l-131.723831-7.464158z" fill="#6E6E96" p-id="6403"></path><path d="M432.910854 271.786076l34.524824 35.988788s-21.048101 19.769709-44.933407 29.724669c-1.129933-40.850801 6.961049-37.188827 10.408583-65.713457z" fill="#FFFFFF" p-id="6404"></path><path d="M416.56806 346.675086l-0.251555-9.002352c-0.721673-26.017333 2.247495-35.044428 5.389864-44.599375 1.863978-5.666162 3.789813-11.522021 5.059957-22.025452l1.567061-12.961242 47.890203 49.919134-4.556848 4.28055c-0.89075 0.841264-22.149167 20.656336-46.785013 30.928832l-8.313669 3.459905z m20.367666-61.754567c-1.109314 4.824898-2.334096 8.556977-3.472277 12.021006-2.490802 7.56313-4.688811 14.252006-4.87026 30.854602 12.705564-6.660008 23.872934-15.365443 29.893747-20.413028l-21.55121-22.46258z" fill="#6E6E96" p-id="6405"></path><path d="M562.614002 268.59422s-55.820355 44.533393-102.997133 39.17652l34.277393 38.661039c0.012372 0 55.972937-22.33474 68.71974-77.837559z" fill="#FFFFFF" p-id="6406"></path><path d="M493.898386 352.617546h-2.783595L444.28854 299.803473l16.029383 1.818615c2.383582 0.26805 4.874384 0.408261 7.398176 0.408261 42.570444 0 90.559619-37.88988 91.037985-38.273398l13.851992-11.047779-3.967138 17.27066c-13.150939 57.271948-71.239408 82.637714-74.740552 82.637714z m-20.309933-38.413609l21.897613 24.697703c10.660137-5.24553 40.578627-22.293502 55.201778-54.3234-17.62531 11.390058-47.527304 27.646251-77.099391 29.625697z" fill="#6E6E96" p-id="6407"></path><path d="M460.639582 496.519089c-13.225168-34.986694-40.520893-115.72744-40.574503-185.828667l-16.425271 21.44399-11.732337 21.951222s30.450466 97.29798 66.983602 146.491318l1.748509-4.057863z" fill="#8D8DB3" p-id="6408"></path><path d="M460.330294 512.886627l-6.400206-8.618835c-36.739328-49.469635-66.666065-144.322175-67.923838-148.334676l-0.775283-2.47843 13.497343-25.085344 27.510164-35.910435 0.012372 18.223267c0.05361 69.965141 28.112246 151.736847 40.17449 183.647154l0.882503 2.338219-6.977545 16.21908zM398.60047 354.687715c3.773317 11.604498 20.689326 62.105094 42.677664 104.844615-11.365315-35.827958-24.099745-84.860466-26.854473-131.307323l-5.56719 7.266214-10.256001 19.196494z" fill="#6E6E96" p-id="6409"></path><path d="M562.614002 268.59422v50.401624l-22.314121 20.099617-30.800993 8.919875c0-0.004124 31.518541-59.964818 53.115114-79.421116z" fill="#B38DAF" p-id="6410"></path><path d="M503.313122 356.246529v-8.231193c0-5.262025 35.749605-66.534102 55.16054-84.015078l10.326106-9.303393v67.049583l-25.415252 22.895583-40.071394 11.604498z m53.115113-71.672413c-12.012758 15.159251-25.497729 37.551725-34.39286 53.370792l15.17987-4.396018 19.21299-17.30365v-31.671124z" fill="#6E6E96" p-id="6411"></path><path d="M551.285802 364.292149l-101.995039 158.86285s-6.367215-49.787171 60.224621-175.156159l30.800992-8.919875 10.969426 25.213184z" fill="#B38DAF" p-id="6412"></path><path d="M445.311254 540.805052l-2.156771-16.862399c-0.26805-2.115532-5.847611-53.181095 60.896807-178.842875l1.228906-2.313477 38.5332-11.163246 14.466445 33.225813-112.968587 175.956184z m68.439318-187.589549c-39.164148 74.192081-52.236734 120.964722-56.484294 146.070685l87.029608-135.554882-7.480654-17.192307-23.06466 6.676504z" fill="#6E6E96" p-id="6413"></path><path d="M424.692033 266.198267s-28.326686 18.165534-37.741422 44.327201c0 0-3.274332 16.965495 35.671252 39.63839 0.004124-0.004124-0.969103-55.259512 2.07017-83.965591" fill="#B38DAF" p-id="6414"></path><path d="M423.603338 357.896066l-4.094978-2.383582c-41.539483-24.182222-39.052805-43.980798-38.632172-46.158188l0.255678-0.923741c10.012694-27.819453 38.995071-46.653049 40.223977-47.440704l10.84571-6.956925-1.356745 12.812784c-2.816586 26.61529-2.127904 77.342698-2.041303 83.041851l0.041239 2.63926-1.872226 2.033055-3.36918 3.33619z m-30.570057-45.993234c0.098972 1.58768 1.48046 12.115854 23.283224 26.998808-0.094848-14.759238-0.028867-39.366217 1.121686-59.313251-8.293051 7.200232-19.254229 18.6439-24.40491 32.314443z" fill="#6E6E96" p-id="6415"></path><path d="M687.430394 475.310158l-21.431618 164.541384-22.615162-1.224782h-22.664648l-8.495119-7.645607 11.45604-125.051452-47.003577-132.433132-14.049937-104.902349s19.839814 28.071007 61.630852 55.506943c-0.012372-0.004124 59.86997 60.756597 63.173169 151.208995z" fill="#B38DAF" p-id="6416"></path><path d="M671.38864 646.342472l-28.343181-1.53407-24.701827 0.008248-12.565353-11.303457 11.616869-126.78759-46.764393-131.769193-14.136538-105.537421 11.175618-4.396018c0.193821 0.272174 19.794452 27.530784 59.981314 53.911015l5.068204 3.327943-0.721673 1.142304c12.940623 14.668514 58.694674 71.985824 61.606109 151.683238l0.020619 0.51548-0.070105 0.511357-22.165663 170.228164z m-48.302587-13.897355h20.293437l17.225298 0.927865 20.623344-158.343245c-3.22897-82.938754-55.21415-140.074616-60.950417-146.140791-22.338864-14.738619-38.438352-29.547344-48.735591-40.343568l11.183866 83.495474 47.238635 133.109443-0.119591 1.352621-11.175618 121.962692 4.416637 3.979509z" fill="#6E6E96" p-id="6417"></path><path d="M637.313316 512.564967h-9.550824a6.185766 6.185766 0 1 1 0-12.371533h9.550824a6.185766 6.185766 0 1 1 0 12.371533z" fill="#6E6E96" p-id="6418"></path><path d="M619.246754 179.651149c-8.676568 45.984987-28.252457 100.015593-134.284738 78.860272C426.630239 246.873933 403.866619 209.536647 400.9923 158.739135 397.92416 104.419859 357.357905 5.241406 483.708367 16.903637c124.853507-16.03763 145.019105 112.453107 135.538387 162.747512z" fill="#7B7B9C" p-id="6419"></path><path d="M528.010825 269.423113c-13.245788 0-28.136989-1.633042-44.26122-4.845517-55.680144-11.109636-85.602758-46.599439-88.934824-105.487935-0.503109-8.928123-2.074294-19.254229-3.740326-30.190663-5.167177-33.951609-11.027159-72.435323 9.979703-96.881472 15.452044-17.979961 42.327137-24.932762 82.546989-21.33677 46.529334-5.794001 83.606817 7.220851 109.310738 38.219788 33.996972 41.007507 37.926995 102.663101 32.413415 131.892909-8.268308 43.824092-26.297754 88.625536-97.306227 88.62966h-0.008248zM464.433519 22.145043c-25.959599 0-43.626148 5.86823-53.997616 17.938723-17.30365 20.136731-11.901414 55.638906-7.130126 86.959502 1.711395 11.233352 3.323818 21.839879 3.859918 31.353588 3.01453 53.280067 28.858662 84.043945 79.004607 94.052514 15.328329 3.059892 29.403009 4.610458 41.840523 4.610458h0.008248c61.804053 0 77.449918-37.753794 85.149135-78.550984 5.088824-27.019427 1.509327-83.957344-29.786527-121.707014-23.019298-27.761719-56.496665-39.205387-98.889784-33.757789l-0.67631 0.086601-0.680434-0.061858a203.12407 203.12407 0 0 0-18.701634-0.923741z" fill="#6E6E96" p-id="6420"></path><path d="M584.486871 232.795129s-24.817294-50.945971-4.886755-84.670769c13.616934-23.060537-3.628983-47.020072-15.922162-59.886466-2.119656-1.608299-7.806437-8.614711-10.577661-8.833274-117.113051-9.022971-103.813654-22.338864-136.511614 20.615097-45.976739 60.40607-17.78614 169.164213 32.409291 199.928091 33.996972 20.850156 91.297787 7.224975 143.216985-75.833371 6.956925-11.117884 12.775669-22.054319 16.565483-32.999002-2.565031 12.742679-24.293566 41.679693-24.293567 41.679694z" fill="#E3B8A8" p-id="6421"></path><path d="M480.590741 314.797771c-12.569477 0-24.611102-3.311447-34.825865-9.575567-26.277135-16.103612-47.510809-52.339831-55.420342-94.563871-8.251812-44.050904-0.48249-85.742969 21.320275-114.38719l2.383582-3.138246c15.678856-20.648088 22.169786-29.196817 42.702406-29.196817 7.942524 0 18.289249 1.21241 32.607236 2.894939 15.229357 1.789748 36.087761 4.239312 64.208255 6.40433 3.9259 0.309288 7.163117 3.33619 11.653983 7.917781 0.898998 0.915493 1.661909 1.736138 2.198009 2.160894l0.725797 0.647444c22.524437 23.576017 28.483392 47.477818 16.775798 67.305261-12.981862 21.967718-4.672315 53.045008 1.039209 68.814588 3.934147-5.699153 8.878637-13.23754 12.462257-19.967654 1.765005-3.781565 3.278456-7.488901 4.503238-11.018911l11.909662 3.245465c-0.701054 3.484648-2.449563 7.839428-5.336255 13.303522-3.154741 6.717742-7.093012 13.835497-12.049872 21.757402-47.523181 76.043687-93.615387 87.39663-116.857373 87.39663z m-23.83582-238.490158c-13.996327 0-17.019105 3.459905-32.850543 24.310062l-2.395953 3.150617c-19.687232 25.864751-26.61529 63.997938-19.006798 104.613679 7.175489 38.306389 26.697767 72.175521 49.729437 86.295564 8.387899 5.142434 17.926351 7.748703 28.359677 7.748703 32.087632 0 67.148555-24.718322 97.65263-68.377461-4.090853-9.002352-23.629627-55.795612-3.967138-89.07091 11.550888-19.567641-4.169206-40.974516-14.800477-52.179001-0.903122-0.754663-1.884597-1.756758-3.084635-2.981539-1.142305-1.167048-3.406295-3.476401-4.589839-4.309418-27.947292-2.169142-48.694352-4.606334-63.88247-6.387834-13.901479-1.633042-23.943039-2.812462-31.163891-2.812462z" fill="#6E6E96" p-id="6422"></path><path d="M594.953188 213.643996c-7.810561 13.493218-16.462386 21.930603-5.591933 28.668965 10.84571 6.742485 25.984342 1.257772 33.778408-12.239569 7.818809-13.501466 5.348626-29.906118-5.509456-36.660975-10.849834-6.72599-14.858211 6.721866-22.677019 20.231579z" fill="#EDC0AF" p-id="6423"></path><path d="M599.604884 251.381295c-4.824898 0-9.497213-1.31963-13.509713-3.814556-4.214569-2.614517-6.808467-5.901221-7.695094-9.76114-1.579432-6.862077 2.470183-13.254035 7.150746-20.660459 1.299011-2.053674 2.684623-4.24756 4.049615-6.602275 1.348497-2.329972 2.577403-4.65582 3.748575-6.874448 4.965108-9.373498 9.649795-18.231515 18.932568-18.231515 2.804214 0 5.699153 0.915493 8.610587 2.717613 13.654048 8.495119 17.060343 28.68546 7.600245 45.020007-6.490931 11.229228-17.559329 18.206772-28.887529 18.206773z m12.676697-53.568737c-1.830987 0-5.839363 7.575502-7.99201 11.645736-1.245401 2.350591-2.55266 4.81665-3.983633 7.286833a209.977899 209.977899 0 0 1-4.30117 7.018783c-2.664003 4.206321-5.971326 9.443603-5.550694 11.27459 0.082477 0.362898 0.701054 1.113438 2.160894 2.020684a13.018976 13.018976 0 0 0 6.985792 1.954702c6.820838 0 13.959213-4.721802 18.177906-12.029254 6.148652-10.614775 4.614582-23.316215-3.418667-28.31019-1.014466-0.639196-1.740262-0.861883-2.078418-0.861884zM528.361352 442.096717h42.046715v12.371533h-42.046715z" fill="#6E6E96" p-id="6424"></path><path d="M398.753053 155.217372s5.315635-57.775057 57.787428-57.775057h77.705597s25.229679 9.963208 25.229678 39.180643-23.110023 58.542092-6.639389 88.988434c0 0-25.233803 46.479848-82.349045 46.479848-57.119366 0.008248-71.73427-62.418506-71.734269-116.873868z" fill="#EDC0AF" p-id="6425"></path><path d="M300.432359 597.722349l85.046039-239.281935s38.405361 89.235865 67.012468 132.927993l-3.200103 15.814943S390.789909 430.14994 390.789909 411.559651l-67.820741 188.773092-22.536809-2.610394zM404.175908 670.108186l46.360256-128.544347 10.81272 55.709011-26.235897 79.643803z" fill="#6E6E96" opacity=".25" p-id="6426"></path><path d="M576.663939 373.500693L456.52811 551.683753s9.880731 45.877767 33.819646 134.173394c0 0-39.790973-123.801927-41.073488-162.685653l101.995038-158.866974-10.985921-25.196688 29.064854-20.099617 7.3157 54.492478z" fill="#6E6E96" opacity=".25" p-id="6427"></path><path d="M455.921905 476.650408s-21.357389-106.275589-10.676633-124.861755l28.301943-28.306067-10.503431-11.847804-37.720803 26.887464c0-0.016495 0.329908 100.716647 30.598924 138.128162z" fill="#B38DAF" opacity=".15" p-id="6428"></path><path d="M461.18393 335.849995l36.046522 36.046522 12.268436-23.885305-15.596378-1.579433-20.355295-22.953316z" fill="#6E6E96" opacity=".15" p-id="6429"></path><path d="M559.607719 398.800477l41.03225 107.578723-11.959148 125.653533-31.869068 29.217436H487.74561l2.618641 24.606978 69.424917 1.278392 60.092658-27.246238 0.820645-21.25017-8.495119-7.649731 11.472535-125.051451-47.015948-132.437256z" fill="#6E6E96" opacity=".25" p-id="6430"></path><path d="M624.244853 324.097039l38.817746 144.57373-15.922163 170.916847 18.841844 0.263926 21.431619-164.541384c0.016495 0-12.396276-115.545991-63.169046-151.213119z" fill="#6E6E96" opacity=".25" p-id="6431"></path><path d="M471.806953 640l3.69084 71.532201 13.555076 92.229776-1.014466 156.722575-32.174232 8.404394v-265.134315H401.417056l-38.33938-14.165405-6.284738-34.961951 78.320049 22.289378 28.726699-75.429234z" fill="#6E6E96" opacity=".25" p-id="6432"></path><path d="M488.038403 796.862786l12.99011-83.808886h61.094751l22.578047-6.639389-29.217436 124.849383v135.142498l25.5101-5.583685 9.827121-122.853443 29.06073-178.079963-60.092658 27.246238-69.424917-1.278392-6.606398-15.303585-8.26006 40.978639z" fill="#6E6E96" opacity=".25" p-id="6433"></path><path d="M551.178582 754.622249l199.321885-42.615805-2.082541 111.343793-168.372435 71.119817z" fill="#C2A386" p-id="6434"></path><path d="M580.045491 900.65582a6.198138 6.198138 0 0 1-6.053803-4.932118l-28.866909-139.847804a6.185766 6.185766 0 0 1 4.76304-7.303328l199.321885-42.611682a6.185766 6.185766 0 0 1 7.480653 6.169271l-2.082541 111.343793a6.194014 6.194014 0 0 1-3.777441 5.583685l-168.372435 71.115693a6.309482 6.309482 0 0 1-2.412449 0.48249z m-21.567705-141.270531l26.09981 126.453559 157.728793-66.620703 1.859853-99.52898-185.688456 39.696124z" fill="#6E6E96" p-id="6435"></path><path d="M551.178582 754.622249l28.866909 16.495377 170.454976-59.111182-23.015174-16.804666z" fill="#D6B494" p-id="6436"></path><path d="M580.045491 777.303393c-1.063952 0-2.12378-0.272174-3.06814-0.812398l-28.866909-16.495377a6.185766 6.185766 0 0 1 1.092818-11.233351l176.310835-59.416347c1.90934-0.639196 4.000129-0.32166 5.624924 0.870131l23.01105 16.804665a6.185766 6.185766 0 0 1-1.620671 10.837462l-170.454975 59.107059c-0.659815 0.222688-1.344373 0.338155-2.028932 0.338156z m-13.839621-21.221303l14.466445 8.268308 156.635975-54.315152-10.882825-7.946648-160.219595 53.993492z" fill="#6E6E96" p-id="6437"></path><path d="M579.901157 771.076388l0.325783 123.356551-28.916395-18.808853-0.313412-120.968846z" fill="#D6B494" p-id="6438"></path><path d="M580.22694 900.618705c-1.175296 0-2.350591-0.334031-3.36918-0.99797l-28.916396-18.808853a6.185766 6.185766 0 0 1-2.816585-5.171301l-0.313413-120.968845a6.185766 6.185766 0 0 1 9.241535-5.398112l28.908148 16.417023c1.929959 1.101066 3.125874 3.146493 3.129998 5.365122l0.317536 122.346209a6.185766 6.185766 0 0 1-6.099166 7.212604l-0.082477 0.004123z m-22.738877-28.355552l16.524244 10.746738-0.284545-108.333387-16.515996-9.377622 0.276297 106.964271z" fill="#6E6E96" p-id="6439"></path><path d="M623.73762 748.176681a6.185766 6.185766 0 0 1-6.099165-5.208415c-0.301041-1.905216-7.076517-46.941718 26.660653-72.78585 10.540546-8.074487 18.940816-7.163117 24.11624-4.985728 19.229485 8.095106 24.421405 46.628306 24.949258 50.995457a6.185766 6.185766 0 0 1-5.398112 6.878572 6.177519 6.177519 0 0 1-6.88682-5.393988c-1.414479-11.600374-7.546635-36.912529-17.46448-41.077612-1.175296-0.490737-4.750669-1.991817-11.790071 3.398048-27.939044 21.406875-22.029576 60.62051-21.963594 61.012275a6.18989 6.18989 0 0 1-6.123909 7.167241z" fill="#6E6E96" p-id="6440"></path><path d="M620.702471 638.639131l1.554689 23.67499s-23.254357 5.56719-15.720094 26.025581c0 0 8.334289 17.716035 14.466446 4.49499 9.022971-19.501659 12.103483-6.445568 14.004575 3.340314 2.573279 13.216921 38.430104 3.996005 38.430104-19.37382 0-23.378073-20.198589-11.901414-16.454139-32.77219 0.775283-4.268179 9.0106-4.152711 9.0106-4.152711l-45.292181-1.237154z" fill="#E3B8A8" p-id="6441"></path><path d="M645.062019 708.426947c-8.618834 0-14.796353-4.239312-16.128355-11.072522a106.419923 106.419923 0 0 0-0.989723-4.622829c-0.404137 0.767035-0.841264 1.653662-1.323753 2.696994-3.253713 7.018783-7.719836 8.490995-10.891073 8.490995-8.070363 0-13.357131-9.909598-14.788105-12.948871a5.208415 5.208415 0 0 1-0.206193-0.494861c-3.414543-9.270402-1.521699-16.09124 0.668063-20.182094 3.55063-6.635265 9.880731-10.359097 14.371597-12.276684l-1.249525-18.977931c-0.111344-1.740262 0.511357-3.44341 1.71552-4.697058s2.857824-2.041303 4.626953-1.892845l45.288057 1.23303a6.185766 6.185766 0 0 1-0.169078 12.367408 16.000515 16.000515 0 0 0-3.142369 0.395889c-0.717549 4.895003 0.367022 5.521827 4.016624 7.645608 5.076452 2.952672 12.759174 7.410548 12.759174 22.701762 0.004124 20.37179-20.429524 31.634009-34.557814 31.634009z m-16.11186-31.873192c8.544605 0 10.7055 11.097265 12.128226 18.441831 0.086601 0.433004 1.550565 1.063952 3.983634 1.063952 7.744579 0 22.190406-6.614646 22.190405-19.258352 0-8.169335-2.486678-9.612681-6.602274-12.004511-4.614582-2.680499-11.43542-6.643513-10.144657-19.155256l-23.188376-0.630948 1.113438 16.903637a6.194014 6.194014 0 0 1-4.730049 6.424949c-2.309353 0.577338-8.907503 3.12175-11.410677 7.839428-1.410355 2.668127-1.42685 5.864106-0.045362 9.761139 0.812397 1.64129 2.008312 3.447534 3.002158 4.606334l0.148459-0.309288c3.286704-7.105384 7.204356-13.682915 13.555075-13.682915z" fill="#6E6E96" p-id="6442"></path><path d="M579.996005 813.036502a6.185766 6.185766 0 0 1-2.115532-11.996262l169.885885-61.898902a6.185766 6.185766 0 1 1 4.235188 11.625117l-169.885885 61.898901c-0.701054 0.247431-1.414479 0.371146-2.119656 0.371146z" fill="#6E6E96" p-id="6443"></path><path d="M724.380038 786.235639a6.185766 6.185766 0 0 1-6.185766-6.185766v-40.207481a6.185766 6.185766 0 0 1 12.371532 0v40.207481a6.185766 6.185766 0 0 1-6.185766 6.185766zM609.943362 826.44312a6.185766 6.185766 0 0 1-6.185767-6.185766v-40.207481a6.185766 6.185766 0 0 1 12.371533 0v40.207481a6.185766 6.185766 0 0 1-6.185766 6.185766z" fill="#6E6E96" p-id="6444"></path><path d="M579.996005 823.746126a6.185766 6.185766 0 0 1-2.115532-11.996263l169.885885-61.898901a6.185766 6.185766 0 0 1 4.235188 11.625116l-169.885885 61.898902c-0.701054 0.251554-1.414479 0.371146-2.119656 0.371146z" fill="#6E6E96" opacity=".15" p-id="6445"></path><path d="M580.19395 886.238861a6.185766 6.185766 0 0 1-2.379459-11.897291l168.475531-70.138342a6.185766 6.185766 0 1 1 4.750669 11.423049l-168.475531 70.138342a6.206386 6.206386 0 0 1-2.37121 0.474242z" fill="#6E6E96" opacity=".15" p-id="6446"></path><path d="M432.618061 181.061503a6.185766 6.185766 0 0 1-6.185766-6.185766v-22.681143a6.185766 6.185766 0 1 1 12.371532 0v22.681143a6.185766 6.185766 0 0 1-6.185766 6.185766zM495.869583 181.729566a6.185766 6.185766 0 0 1-6.185766-6.185766v-24.013145a6.185766 6.185766 0 1 1 12.371533 0v24.013145a6.185766 6.185766 0 0 1-6.185767 6.185766zM465.691292 247.059506c-10.783853 0-21.563581-4.099101-29.774155-12.301427a6.185766 6.185766 0 0 1 8.742549-8.750798c11.59625 11.583878 30.462837 11.583878 42.054963 0a6.185766 6.185766 0 0 1 8.74255 8.750798 41.964239 41.964239 0 0 1-29.765907 12.301427z" fill="#6E6E96" p-id="6447"></path></svg>