<?xml version="1.0" standalone="no"?><!DOCTYPE svg PUBLIC "-//W3C//DTD SVG 1.1//EN" "http://www.w3.org/Graphics/SVG/1.1/DTD/svg11.dtd"><svg t="1736129833126" class="icon" viewBox="0 0 1024 1024" version="1.1" xmlns="http://www.w3.org/2000/svg" p-id="14874" id="mx_n_1736129833128" width="16" height="16" xmlns:xlink="http://www.w3.org/1999/xlink"><path d="M982.4 448c-9.6-41.6-28.8-73.6-64-99.2-3.2-3.2-3.2-6.4-6.4-9.6-19.2-64-51.2-121.6-96-169.6-60.8-67.2-137.6-108.8-224-128-44.8-9.6-89.6-9.6-134.4-3.2-48 6.4-92.8 22.4-134.4 44.8C256 118.4 204.8 166.4 166.4 227.2c-25.6 35.2-41.6 76.8-54.4 118.4 0 3.2-3.2 6.4-3.2 6.4-25.6 16-44.8 41.6-57.6 70.4-16 38.4-16 76.8-6.4 118.4 6.4 32 22.4 57.6 44.8 80 25.6 25.6 57.6 35.2 92.8 38.4 22.4 0 41.6-16 41.6-41.6v-32c44.8 115.2 160 198.4 294.4 198.4 131.2 0 246.4-80 291.2-195.2v28.8c0 25.6 16 41.6 41.6 41.6h12.8c3.2 0 3.2 0 3.2 3.2v3.2c-9.6 41.6-22.4 80-48 118.4-22.4 32-44.8 60.8-80 80-9.6 6.4-19.2 9.6-32 9.6H652.8c-6.4-16-16-28.8-28.8-41.6-22.4-19.2-51.2-25.6-80-25.6-28.8 0-54.4 9.6-76.8 32-38.4 35.2-35.2 89.6 3.2 121.6 35.2 28.8 76.8 35.2 118.4 22.4 32-9.6 54.4-28.8 67.2-60.8h70.4c6.4 0 12.8 0 19.2-3.2 48-22.4 83.2-60.8 115.2-105.6 35.2-51.2 54.4-112 60.8-172.8 0-3.2 3.2-6.4 3.2-6.4 19.2-12.8 32-28.8 44.8-51.2 19.2-44.8 22.4-89.6 12.8-134.4z m-153.6-118.4c-12.8 6.4-19.2 12.8-22.4 25.6-44.8-118.4-160-201.6-294.4-201.6-134.4 0-249.6 83.2-294.4 204.8-3.2-12.8-9.6-19.2-22.4-25.6-3.2-3.2-3.2-3.2-3.2-6.4 3.2-6.4 9.6-16 12.8-22.4 19.2-35.2 41.6-67.2 70.4-96 32-32 70.4-57.6 112-73.6 51.2-22.4 105.6-28.8 163.2-22.4 51.2 6.4 96 22.4 137.6 48 32 19.2 64 48 86.4 76.8 22.4 28.8 41.6 57.6 54.4 92.8 3.2 0 3.2 0 0 0z" fill="#70C6FF" p-id="14875"></path></svg>